<svg xmlns="http://www.w3.org/2000/svg" width="1024" height="1024" viewBox="0 0 1024 1024">
<defs>
  <linearGradient id="gg" x1="0" y1="0" x2="1" y2="1">
    <stop offset="0" stop-color="#FFB067"/>
    <stop offset="0.55" stop-color="#F97316"/>
    <stop offset="1" stop-color="#E4660A"/>
  </linearGradient>
</defs>
<!-- 圆角方形背景 -->
<rect x="0" y="0" width="1024" height="1024" rx="220" ry="220" fill="url(#gg)"/>
<path d="M 536.4 233.1 A 280.0 280.0 0 0 1 790.9 487.6" fill="none" stroke="#fff" stroke-width="44" stroke-linecap="round"/><path d="M 790.9 536.4 A 280.0 280.0 0 0 1 536.4 790.9" fill="none" stroke="#fff" stroke-width="44" stroke-linecap="round"/><path d="M 487.6 790.9 A 280.0 280.0 0 0 1 233.1 536.4" fill="none" stroke="#fff" stroke-width="44" stroke-linecap="round"/><path d="M 233.1 487.6 A 280.0 280.0 0 0 1 487.6 233.1" fill="none" stroke="#fff" stroke-width="44" stroke-linecap="round"/><rect x="370.0" y="500.0" width="64" height="120" rx="30" fill="#fff"/><rect x="480.0" y="444.0" width="64" height="176" rx="30" fill="#fff"/><rect x="590.0" y="388.0" width="64" height="232" rx="30" fill="#fff"/><path d="M 622.0 382.0 L 692.0 442.0 L 722.0 408.0" fill="none" stroke="#fff" stroke-width="34" stroke-linecap="round" stroke-linejoin="round"/><path d="M 814.0 316.0 L 766.4 346.6 L 790.2 302.4 Z" fill="#fff"/>
</svg>